<svg width="453" height="370" viewBox="0 0 493 405" fill="none" xmlns="http://www.w3.org/2000/svg">
<path d="M468.547 66.7391C474.285 48.6389 464.264 29.314 446.163 23.5757C428.063 17.8374 408.738 27.8588 403 45.959C397.262 64.0593 407.283 83.3842 425.383 89.1225C443.483 94.8607 462.808 84.8393 468.547 66.7391Z" fill="#EBEBEB"/>
<path d="M454.431 85.0859C469.895 75.6502 474.782 55.4649 465.346 40.0007C455.911 24.5365 435.725 19.6495 420.261 29.0851C404.797 38.5208 399.91 58.7061 409.346 74.1703C418.781 89.6345 438.967 94.5216 454.431 85.0859Z" fill="#DBDBDB"/>
<path d="M453.37 83.3262C467.856 74.4806 472.428 55.5666 463.582 41.0807C454.737 26.5948 435.823 22.0226 421.337 30.8682C406.851 39.7139 402.279 58.6279 411.124 73.1138C419.97 87.5997 438.884 92.1719 453.37 83.3262Z" fill="white"/>
<path opacity="0.5" d="M467.398 50.6128C453.407 59.0915 430.403 73.003 417.549 80.6293C413.914 77.5629 411.039 73.696 409.149 69.3319L451.668 29.916C455.642 32.0087 459.109 34.9459 461.826 38.5214C464.544 42.0969 466.446 46.224 467.398 50.6128Z" fill="#EBEBEB"/>
<path opacity="0.5" d="M468.069 58.1934C467.962 61.6137 467.278 64.9914 466.046 68.1837L427.71 86.3687C426.039 85.8165 424.419 85.1206 422.868 84.2888C434.45 77.5376 455.612 65.3878 468.069 58.1934Z" fill="#EBEBEB"/>
<path d="M437.655 28.6211H437.064V33.281H437.655V28.6211Z" fill="#C7C7C7"/>
<path d="M423.366 32.2826L422.854 32.5781L425.184 36.6137L425.696 36.3182L423.366 32.2826Z" fill="#C7C7C7"/>
<path d="M412.796 42.5976L412.5 43.1094L416.536 45.4393L416.832 44.9275L412.796 42.5976Z" fill="#C7C7C7"/>
<path d="M413.526 56.8301H408.866V57.4211H413.526V56.8301Z" fill="#C7C7C7"/>
<path d="M416.581 68.8185L412.545 71.1484L412.84 71.6603L416.876 69.3303L416.581 68.8185Z" fill="#C7C7C7"/>
<path d="M425.17 77.6136L422.842 81.6504L423.354 81.9456L425.682 77.9088L425.17 77.6136Z" fill="#C7C7C7"/>
<path d="M437.655 80.9707H437.064V85.6306H437.655V80.9707Z" fill="#C7C7C7"/>
<path d="M449.546 77.6225L449.034 77.918L451.364 81.9536L451.876 81.6581L449.546 77.6225Z" fill="#C7C7C7"/>
<path d="M458.134 68.7655L457.839 69.2773L461.874 71.6073L462.17 71.0954L458.134 68.7655Z" fill="#C7C7C7"/>
<path d="M465.864 56.8301H461.205V57.4211H465.864V56.8301Z" fill="#C7C7C7"/>
<path d="M461.903 42.6186L457.868 44.9492L458.163 45.461L462.198 43.1303L461.903 42.6186Z" fill="#C7C7C7"/>
<path d="M451.386 32.3069L449.059 36.3438L449.571 36.639L451.898 32.6022L451.386 32.3069Z" fill="#C7C7C7"/>
<path d="M437.814 30.734L438.825 59.2048L435.904 59.1594L437.018 30.7227L437.814 30.734Z" fill="#C7C7C7"/>
<path d="M455.544 47.2027L436.393 59.4207L434.995 56.8635L455.169 46.498L455.544 47.2027Z" fill="#A6A6A6"/>
<path d="M438.36 57.1252C438.36 57.323 438.301 57.5164 438.191 57.6808C438.081 57.8453 437.925 57.9735 437.742 58.0492C437.56 58.1249 437.358 58.1447 437.164 58.1061C436.97 58.0675 436.792 57.9723 436.652 57.8324C436.512 57.6925 436.417 57.5143 436.379 57.3203C436.34 57.1263 436.36 56.9252 436.435 56.7424C436.511 56.5597 436.639 56.4035 436.804 56.2936C436.968 56.1837 437.162 56.125 437.36 56.125C437.625 56.125 437.879 56.2304 438.067 56.4179C438.254 56.6055 438.36 56.8599 438.36 57.1252Z" fill="#C7C7C7"/>
<path d="M0 403.844L61.5447 403.571L123.089 403.469L246.179 403.287L369.268 403.469L430.813 403.571L492.357 403.844L430.813 404.128L369.268 404.23L246.179 404.412L123.089 404.23L61.5447 404.128L0 403.844Z" fill="#263238"/>
<path d="M283.566 61.3275C271.656 77.2609 256.462 90.4493 239.012 100C221.562 90.4493 206.368 77.2609 194.458 61.3275C178.773 40.5703 179.546 8.06749 201.994 1.05249C226.817 -6.682 239.012 30.7493 239.012 30.7493C239.012 30.7493 251.387 -6.84389 276.048 1.1784C298.406 8.37327 299.251 40.6243 283.566 61.3275Z" fill="#FFB573"/>
<path d="M221.511 83.6483L214.729 55.4803L210.323 65.4093H183V62.2255H208.254L215.647 45.6234L220.917 67.5857L228.364 22.0781L234.947 58.0885L240.163 43.0512L248.365 67.6576L250.182 62.2255H295.06V65.3913H252.466L248.365 77.6945L240.109 52.9262L234.012 70.5536L228.544 40.6949L221.511 83.6483Z" fill="white"/>
<path d="M313.63 337.888C313.63 337.888 331.701 333.796 341.601 324.67C351.5 315.543 357.035 299.211 357.035 299.211C350.16 300.523 343.382 302.3 336.747 304.53C334.268 307.081 332.201 310.003 330.621 313.191C330.465 311.129 330.465 309.058 330.621 306.996C328.308 307.999 326.144 309.314 324.189 310.906C315.948 318.089 313.63 337.888 313.63 337.888Z" fill="#FFB573"/>
<path d="M345.748 307.157C348.214 305.452 350.715 303.804 353.17 302.088C353.318 301.986 353.17 301.747 353.022 301.849C348.362 304.622 343.782 307.6 339.383 310.703C337.868 311.794 336.353 312.931 334.837 314.113C334.939 313.931 335.042 313.749 335.155 313.567C335.69 312.669 336.292 311.771 336.837 310.885C337.969 309.076 339.25 307.365 340.668 305.77C340.725 305.713 340.668 305.623 340.577 305.679C339.179 307.305 337.769 308.907 336.485 310.635C335.871 311.453 335.349 312.294 334.769 313.158C334.485 313.613 334.223 314.067 333.962 314.522L333.689 314.988C331.348 316.829 329.075 318.738 326.87 320.761C325.529 322.012 324.244 323.307 322.994 324.637C323.688 322.455 324.301 320.239 325.108 318.091C325.108 318.011 325.017 317.988 324.995 318.091C324.21 320.364 323.347 322.637 322.721 324.91C321.346 326.399 320.016 327.945 318.778 329.558C318.778 329.468 318.778 329.365 318.834 329.263C319.039 328.411 319.255 327.57 319.482 326.717C319.925 325.08 320.403 323.467 320.948 321.864C321.989 318.535 323.635 315.425 325.802 312.692C325.802 312.635 325.801 312.556 325.722 312.612C322.332 316.829 319.963 321.774 318.8 327.058C318.607 327.831 318.425 328.604 318.243 329.331C318.152 329.74 318.05 330.161 317.982 330.581C317.436 331.309 316.845 332.059 316.379 332.855C313.302 337.562 310.741 342.589 308.742 347.846C306.486 353.753 304.551 359.778 302.945 365.894C302.952 365.914 302.965 365.932 302.983 365.944C303 365.956 303.021 365.963 303.042 365.963C303.063 365.963 303.084 365.956 303.101 365.944C303.118 365.932 303.132 365.914 303.139 365.894C306.662 355.324 310.276 344.607 316.323 335.207C317.601 333.219 318.978 331.296 320.448 329.445C323.44 329.244 326.394 328.656 329.234 327.695C332.334 326.647 335.293 325.219 338.042 323.444C339.622 322.41 341.077 321.171 342.589 320.034C342.599 320.03 342.608 320.024 342.615 320.017C342.623 320.009 342.628 319.999 342.631 319.989C342.634 319.979 342.635 319.968 342.632 319.957C342.63 319.947 342.626 319.937 342.619 319.928C342.613 319.92 342.604 319.913 342.594 319.908C342.585 319.904 342.574 319.901 342.563 319.902C342.552 319.902 342.542 319.905 342.532 319.91C342.523 319.915 342.515 319.923 342.509 319.932C339.984 321.966 337.197 323.652 334.223 324.944C331.31 326.284 328.262 327.309 325.131 328.001C323.801 328.297 322.449 328.513 321.096 328.695C322.773 326.637 324.552 324.664 326.427 322.785C327.029 322.182 327.665 321.648 328.291 321.012C330.4 319.539 332.636 318.257 334.974 317.181C337.929 315.761 340.838 314.238 343.771 312.749C345.43 311.908 347.067 311.044 348.737 310.237C348.805 310.237 348.737 310.101 348.669 310.135C345.703 311.567 342.679 312.908 339.69 314.283C336.872 315.567 334.007 316.863 331.302 318.386L330.961 318.591C333.416 316.462 335.94 314.423 338.531 312.476C340.85 310.692 343.282 308.862 345.748 307.157Z" fill="#263238"/>
<path d="M344.703 316.465C343.226 317.113 341.737 317.681 340.282 318.363C338.799 319.073 337.354 319.858 335.952 320.716C335.883 320.716 335.952 320.841 336.008 320.807C337.452 320.125 338.907 319.477 340.327 318.761C341.748 318.045 343.237 317.238 344.737 316.579C344.828 316.556 344.794 316.431 344.703 316.465Z" fill="#263238"/>
<path d="M254.915 246.861C258.251 251.168 260.141 256.419 260.314 261.864C260.371 263.478 260.12 265.74 259.927 268.388C264.439 271.005 268.436 274.421 271.725 278.469C268.114 276.376 263.969 275.385 259.802 275.616C259.899 277.431 260.131 279.235 260.496 281.015C263.123 281.017 265.725 281.531 268.156 282.527C265.782 282.499 263.428 282.967 261.246 283.902C264.474 294.131 274.043 304.667 300.468 309.145C303.289 296.583 301.649 283.43 295.831 271.945C287.875 256.363 254.915 246.861 254.915 246.861Z" fill="#FFB573"/>
<path d="M309.651 352.971C309.197 348.596 308.617 344.231 307.947 339.89C306.614 331.18 304.847 322.543 302.65 314.01C301.611 310.01 300.336 306.074 298.831 302.224C298.905 301.522 298.939 300.816 298.934 300.11C298.934 299.258 298.934 298.417 298.934 297.564C298.934 295.871 298.831 294.154 298.684 292.495C298.419 289.153 297.879 285.838 297.07 282.584C296.581 280.709 296.024 278.856 295.467 276.992C295.467 276.977 295.461 276.963 295.45 276.952C295.44 276.942 295.425 276.936 295.41 276.936C295.395 276.936 295.381 276.942 295.37 276.952C295.359 276.963 295.353 276.977 295.353 276.992C296.229 280.24 296.878 283.544 297.297 286.881C297.774 290.169 298.07 293.482 298.183 296.803C298.183 297.712 298.24 298.621 298.24 299.53C298.24 299.917 298.24 300.303 298.24 300.667C296.945 297.507 295.457 294.428 293.785 291.45C291.09 286.724 288.051 282.204 284.693 277.924C284.69 277.424 284.617 276.927 284.477 276.447L284.101 274.674C283.829 273.469 283.522 272.264 283.192 271.071C282.533 268.673 281.669 266.366 280.919 264.002C280.919 263.987 280.913 263.972 280.902 263.961C280.892 263.951 280.877 263.945 280.862 263.945C280.847 263.945 280.833 263.951 280.822 263.961C280.811 263.972 280.805 263.987 280.805 264.002C281.499 266.343 281.942 268.764 282.499 271.151C282.772 272.287 283.022 273.503 283.283 274.685C283.408 275.276 283.545 275.822 283.658 276.458C283.664 276.504 283.664 276.549 283.658 276.595C282.59 275.242 281.51 273.912 280.385 272.605C275.339 266.684 269.804 261.24 264.234 255.807C263.553 255.136 262.848 254.489 262.155 253.829C262.098 253.773 262.018 253.829 262.075 253.92C267.417 259.546 272.645 265.229 277.646 271.06C278.828 272.461 279.987 273.874 281.124 275.299L279.328 274.106C277.782 273.105 276.225 272.128 274.623 271.23C273.02 270.332 271.406 269.446 269.758 268.627C268.11 267.809 266.246 267.104 264.621 266.161C264.541 266.161 264.485 266.229 264.553 266.263C266.224 267.039 267.838 267.932 269.383 268.934C270.986 269.889 272.6 270.855 274.179 271.855C275.759 272.855 277.294 273.81 278.828 274.81C280.112 275.651 281.385 276.561 282.715 277.333C285.78 281.268 288.608 285.382 291.182 289.654C292.786 292.341 294.246 295.11 295.558 297.951L294.615 297.541L292.194 296.473C290.637 295.78 289.08 295.109 287.511 294.427C284.556 293.143 281.544 291.95 278.635 290.54C276.996 289.771 275.413 288.89 273.895 287.903C273.827 287.903 273.77 287.972 273.827 288.017C279.248 291.745 285.329 294.382 291.319 297.03L293.921 298.167C294.637 298.485 295.353 298.837 296.092 299.11C297.864 303.085 299.356 307.179 300.559 311.362C302.924 319.775 304.843 328.308 306.31 336.923C307.821 345.561 308.844 354.244 309.64 362.973C309.742 364.11 309.845 365.155 309.97 366.235C309.97 366.326 310.006 366.412 310.069 366.476C310.133 366.54 310.22 366.576 310.311 366.576C310.401 366.576 310.488 366.54 310.552 366.476C310.616 366.412 310.652 366.326 310.652 366.235C310.606 361.837 310.117 357.381 309.651 352.971Z" fill="#263238"/>
<path d="M293.558 280.002C293.08 277.32 292.364 274.694 291.637 272.046C291.637 271.978 291.5 272.046 291.523 272.046C292.194 274.637 292.66 277.263 293.148 279.888C293.637 282.514 294.08 285.241 294.467 287.935H294.535C294.361 285.274 294.035 282.625 293.558 280.002Z" fill="#263238"/>
<path d="M282.192 287.265C280.356 286.057 278.438 284.978 276.453 284.037C275.486 283.537 274.509 283.06 273.532 282.594C272.554 282.128 271.486 281.696 270.486 281.196C270.472 281.194 270.458 281.197 270.446 281.204C270.434 281.211 270.424 281.221 270.418 281.233C270.412 281.245 270.41 281.259 270.412 281.273C270.414 281.286 270.42 281.299 270.429 281.309C271.395 281.787 272.304 282.378 273.259 282.889L276.191 284.503C278.123 285.537 280.021 286.685 282.056 287.526C282.09 287.541 282.129 287.543 282.164 287.53C282.2 287.518 282.229 287.493 282.246 287.459C282.264 287.426 282.268 287.388 282.258 287.351C282.248 287.315 282.224 287.284 282.192 287.265Z" fill="#263238"/>
<path opacity="0.1" d="M314.016 306.597C314.016 306.597 330.734 302.608 338.406 291.39C345.737 280.684 348.101 262.431 348.294 260.828C347.987 262.294 344.544 278.252 333.167 285.685C324.392 291.367 315.971 296.061 314.016 306.597Z" fill="#263238"/>
<path d="M329.394 277.731C326.42 280.464 324.28 283.983 323.223 287.881C323.223 287.938 323.223 287.881 323.223 287.881C324.446 284.071 326.571 280.612 329.417 277.8C329.531 277.731 329.451 277.663 329.394 277.731Z" fill="#263238"/>
<path d="M314.016 306.6C314.016 306.6 330.735 302.61 338.407 291.393C345.737 280.686 348.101 262.433 348.295 260.83C348.292 260.793 348.292 260.755 348.295 260.717C348.295 260.717 340.271 272.082 331.849 275.015C323.427 277.947 311.55 287.96 314.016 306.6Z" fill="#FFB573"/>
<path d="M345.294 267.002C343.799 270.073 342.07 273.026 340.122 275.833C338.173 278.503 335.859 280.887 333.246 282.913C330.973 284.709 328.575 286.323 326.279 288.119V288.028C326.711 287.391 327.166 286.766 327.643 286.164C328.598 284.937 329.643 283.789 330.7 282.641C332.78 280.368 334.894 278.174 336.758 275.742C337.795 274.396 338.693 272.949 339.44 271.423C339.44 271.355 339.361 271.309 339.327 271.423C336.61 277.106 331.2 280.686 327.336 285.459C326.784 286.137 326.269 286.842 325.79 287.573C325.403 288.102 325.078 288.674 324.824 289.278C322.708 290.967 320.8 292.901 319.142 295.041C319.284 293.942 319.508 292.855 319.812 291.79C320.199 290.305 320.792 288.882 321.574 287.562C321.583 287.548 321.586 287.532 321.583 287.516C321.58 287.5 321.57 287.486 321.557 287.477C321.543 287.468 321.527 287.464 321.511 287.468C321.495 287.471 321.481 287.48 321.471 287.494C320.667 288.817 320.015 290.228 319.528 291.699C319.172 292.873 318.966 294.088 318.914 295.313C318.08 296.429 317.321 297.598 316.641 298.814L316.846 297.745C317.175 296.086 317.55 294.427 317.982 292.779C318.769 289.431 320.126 286.244 321.994 283.357C321.994 283.3 321.937 283.232 321.892 283.3C319.975 286.14 318.475 289.24 317.437 292.506C316.914 294.143 316.482 295.813 316.107 297.495C315.925 298.325 315.755 299.143 315.595 299.973C315.516 300.405 315.425 300.837 315.357 301.28C313.696 304.93 312.405 308.738 311.504 312.646C309.86 319.604 308.668 326.662 307.935 333.774C307.079 341.225 306.7 348.723 306.799 356.221C306.799 357.165 306.867 358.097 306.924 359.04C306.924 359.279 307.299 359.313 307.31 359.04C307.469 355.335 307.571 351.618 307.787 347.913C308.003 344.208 308.333 340.503 308.731 336.809C309.487 329.552 310.648 322.342 312.209 315.214C313.561 309.111 315.323 302.951 318.664 297.598C320.322 294.934 322.35 292.519 324.688 290.426C327.041 288.323 329.598 286.482 332.064 284.539C334.586 282.645 336.876 280.459 338.884 278.026C340.929 275.328 342.71 272.439 344.203 269.4C344.589 268.638 344.998 267.888 345.396 267.127C345.43 267.002 345.328 266.933 345.294 267.002Z" fill="#263238"/>
<path d="M342.43 269.444C341.337 271.694 340.095 273.87 338.714 275.956C338.714 276.013 338.714 276.059 338.782 276.013C340.214 273.947 341.473 271.764 342.544 269.489C342.555 269.421 342.43 269.376 342.43 269.444Z" fill="#263238"/>
<path d="M252.642 299.211C252.642 299.211 252.381 322.965 266.588 329.818C280.794 336.672 288.398 330.955 298.047 333.228C297.672 332.66 290.785 322.76 279.863 320.033C268.554 317.248 256.052 309.11 252.642 299.211Z" fill="#FFB573"/>
<path opacity="0.1" d="M252.642 299.211C252.642 299.211 252.381 322.965 266.588 329.818C280.794 336.672 288.398 330.955 298.047 333.228C292.947 330.803 287.497 329.196 281.897 328.466C272.907 327.409 255.802 321.567 252.642 299.211Z" fill="black"/>
<path d="M298.968 333.684C297.268 332.143 295.354 330.857 293.285 329.865C292.978 329.717 292.66 329.592 292.353 329.467C292.206 329.275 292.047 329.093 291.876 328.922C291.451 328.474 291.004 328.049 290.535 327.649C289.647 326.879 288.693 326.19 287.682 325.591C285.329 324.205 282.749 323.239 280.34 321.954C280.272 321.954 280.215 322.023 280.34 322.057C281.476 322.67 282.681 323.352 283.84 324.034C285 324.716 286.113 325.319 287.25 326.023C288.231 326.662 289.169 327.364 290.057 328.126C290.307 328.353 290.546 328.592 290.785 328.831C289.216 328.299 287.614 327.874 285.988 327.558C283.386 327.023 280.76 326.66 278.158 326.103C276.886 325.831 275.63 325.49 274.396 325.08C273.259 324.137 272.043 323.193 270.918 322.159C269.568 320.921 268.339 319.559 267.247 318.09C267.247 318.033 267.099 318.09 267.144 318.158C268.864 320.488 270.814 322.639 272.963 324.58C272.361 324.353 271.747 324.102 271.156 323.83C266.276 321.643 262.09 318.16 259.052 313.76C259.047 313.753 259.042 313.747 259.035 313.743C259.028 313.738 259.021 313.735 259.013 313.734C259.005 313.732 258.997 313.732 258.989 313.734C258.981 313.735 258.973 313.738 258.967 313.743C258.96 313.747 258.954 313.753 258.95 313.76C258.945 313.766 258.942 313.774 258.941 313.782C258.939 313.79 258.939 313.798 258.94 313.806C258.942 313.814 258.945 313.821 258.95 313.828C261.531 317.6 264.862 320.8 268.735 323.227C270.678 324.435 272.752 325.415 274.918 326.148C277.437 326.935 280.008 327.543 282.613 327.967C285.16 328.388 287.674 328.988 290.137 329.763C292.4 330.531 294.529 331.651 296.445 333.081C300.054 335.898 302.957 339.517 304.923 343.651C307.47 349.129 309.057 355.003 309.617 361.018C309.617 361.268 310.038 361.268 310.015 361.018C309.333 351.005 306.662 340.617 298.968 333.684Z" fill="#263238"/>
<path d="M282.477 325.944C281.737 324.833 280.733 323.923 279.556 323.295C278.21 322.593 277.028 321.613 276.089 320.42C276.08 320.406 276.066 320.397 276.05 320.394C276.034 320.391 276.018 320.394 276.004 320.403C275.99 320.412 275.981 320.426 275.978 320.442C275.975 320.458 275.978 320.475 275.987 320.488C276.838 321.577 277.877 322.505 279.056 323.227C280.343 323.915 281.479 324.854 282.397 325.989C282.431 326.046 282.522 326 282.477 325.944Z" fill="#263238"/>
<path d="M290.012 351.219L290.66 364.278L292.649 404.182H322.438L324.415 364.278L325.063 351.219H290.012Z" fill="#455A64"/>
<path d="M290.012 351.219L290.66 364.278H324.415L325.063 351.219H290.012Z" fill="#263238"/>
<path d="M287.932 358.223H327.154V345.766H287.932V358.223Z" fill="#455A64"/>
<path d="M69.1337 57.5915C68.6792 61.8608 67.0481 65.9201 64.4223 69.317C61.7965 72.7139 58.279 75.315 54.2618 76.8304C50.2447 78.3458 45.8857 78.716 41.6705 77.8998C37.4553 77.0836 33.5496 75.113 30.3884 72.2076L18.7842 73.9124L24.592 63.888C23.257 60.6219 22.6847 57.0944 22.9185 53.5738C23.1524 50.0532 24.1863 46.6323 25.9415 43.5715C27.6967 40.5107 30.1271 37.8906 33.0475 35.9107C35.968 33.9307 39.3017 32.6431 42.7948 32.1457C46.2879 31.6483 49.8485 31.9544 53.2055 33.0405C56.5626 34.1266 59.6276 35.9643 62.1674 38.4135C64.7071 40.8628 66.6547 43.8592 67.8619 47.1746C69.0691 50.49 69.5041 54.0371 69.1337 57.546V57.5915Z" fill="white"/>
<path d="M69.1338 57.5909C68.686 61.865 67.0655 65.9321 64.4512 69.3429C63.806 70.1966 63.1035 71.0054 62.3485 71.7638C61.5766 72.5021 60.7605 73.1928 59.9049 73.8323C56.4497 76.4066 52.3522 77.9795 48.062 78.3785C46.9927 78.4752 45.918 78.498 44.8455 78.4467C43.7698 78.4187 42.698 78.3047 41.6404 78.1058C37.3592 77.3182 33.3833 75.35 30.1612 72.423L30.434 72.5025L18.841 74.2869L18 74.412L18.4319 73.6732L24.2056 63.626V64.0238C22.8495 60.729 22.2628 57.1682 22.4903 53.6125C22.7178 50.0567 23.7535 46.5997 25.5184 43.5046C27.2834 40.4095 29.7311 37.7577 32.6754 35.7512C35.6197 33.7447 38.983 32.4363 42.5092 31.9255C46.0354 31.4148 49.6316 31.7152 53.0243 32.8038C56.4169 33.8925 59.5164 35.7407 62.0871 38.2079C64.6577 40.675 66.6316 43.6961 67.8586 47.0412C69.0857 50.3862 69.5334 53.9671 69.1679 57.5113L69.1338 57.5909ZM69.1338 57.5909C69.5074 54.0972 69.0733 50.5645 67.865 47.2652C66.6568 43.966 64.7067 40.9884 62.1653 38.5623C59.6239 36.1361 56.559 34.3263 53.2072 33.2725C49.8554 32.2187 46.3063 31.949 42.8338 32.4843C39.3953 33.0065 36.1197 34.3004 33.2526 36.269C30.4304 38.2526 28.0662 40.8183 26.3196 43.793C24.6056 46.8004 23.599 50.1586 23.3759 53.6129C23.1592 57.0609 23.7185 60.5136 25.0126 63.7169L25.0921 63.9215L24.9785 64.1147L19.1366 74.1164L18.7274 73.5027L30.343 71.8774H30.5022L30.6158 71.9911C33.7204 74.8758 37.5643 76.843 41.72 77.6739C43.8023 78.0636 45.9254 78.1896 48.0393 78.0489C50.1576 77.886 52.2426 77.4269 54.2335 76.6851C56.2366 75.9642 58.1212 74.9491 59.8254 73.6732C61.5631 72.4378 63.097 70.9384 64.3716 69.2292C66.9962 65.8599 68.6436 61.8336 69.1338 57.5909Z" fill="#263238"/>
<path d="M48.778 42.7031H43.2998V67.6165H48.778V42.7031Z" fill="#FFB573"/>
<path d="M33.582 52.4085V57.8867H58.4954V52.4085H33.582Z" fill="#FFB573"/>
</svg>
