<svg width="30" height="31" viewBox="0 0 30 31" fill="none" xmlns="http://www.w3.org/2000/svg">
<path d="M27.2569 13.0519H26.25V13H15V18H22.0644C21.0338 20.9106 18.2644 23 15 23C10.8581 23 7.5 19.6419 7.5 15.5C7.5 11.3581 10.8581 8 15 8C16.9119 8 18.6513 8.72125 19.9756 9.89937L23.5112 6.36375C21.2787 4.28312 18.2925 3 15 3C8.09688 3 2.5 8.59688 2.5 15.5C2.5 22.4031 8.09688 28 15 28C21.9031 28 27.5 22.4031 27.5 15.5C27.5 14.6619 27.4137 13.8438 27.2569 13.0519Z" fill="#FFC107"/>
<path d="M3.94141 9.68188L8.04828 12.6938C9.15953 9.9425 11.8508 8 15.0002 8C16.912 8 18.6514 8.72125 19.9758 9.89937L23.5114 6.36375C21.2789 4.28312 18.2927 3 15.0002 3C10.1989 3 6.03516 5.71062 3.94141 9.68188Z" fill="#FF3D00"/>
<path d="M15.0002 27.9995C18.2289 27.9995 21.1627 26.7638 23.3808 24.7545L19.5121 21.4807C18.2149 22.4672 16.6299 23.0007 15.0002 22.9995C11.7489 22.9995 8.98832 20.9263 7.94832 18.0332L3.87207 21.1738C5.94082 25.222 10.1421 27.9995 15.0002 27.9995Z" fill="#4CAF50"/>
<path d="M27.2569 13.0519H26.25V13H15V18H22.0644C21.5714 19.3853 20.6833 20.5957 19.51 21.4819L19.5119 21.4806L23.3806 24.7544C23.1069 25.0031 27.5 21.75 27.5 15.5C27.5 14.6619 27.4137 13.8438 27.2569 13.0519Z" fill="#1976D2"/>
</svg>



